<?xml version="1.0" encoding="UTF-8"?><svg id="a" xmlns="http://www.w3.org/2000/svg" viewBox="0 0 1020 1020"><defs><style>.i{fill:#dc632e;}.j,.k,.l{fill:#fff;}.m{fill:#1b0000;}.n{fill:#424244;}.o{fill:#1b1a18;}.p{fill:#ffa97c;}.q{fill:#cdc4b3;}.r{fill:#bd8258;}.r,.s,.t,.u,.v{stroke-miterlimit:10;}.r,.t,.u{stroke:#000;}.w{fill:#845537;}.x{fill:#f3a577;}.y{fill:#343537;}.s{stroke:#42210b;}.s,.a`,.v{fill:none;}.aa{fill:#ff4338;}.ab{fill:#8a4e32;}.ac{opacity:.22;}.k{opacity:.83;}.ad{opacity:.4;}.ae{fill:#424358;}.af{fill:#2b2b2b;}.l{opacity:.14;}.ag{fill:#fbbe61;}.ah{fill:#80502c;}.ai{fill:#8b4f35;}.aj{fill:#fafaee;}.ak{fill:#3d3936;}.al{fill:#341d0f;}.am{fill:#220e03;}.t{fill:#fff8e4;stroke-width:.75px;}.an{fill:#130f15;}.u{fill:#825f41;}.ao{fill:#f8c061;}.v{stroke:#333;stroke-dasharray:0 0 15 10;stroke-width:2px;}.ap{fill:#805332;}.aq{fill:#7a7a7a;}.ar{fill:#3c3a3b;}.as{fill:#0d0908;}</style></defs><circle class="aa" cx="510" cy="510" r="510"/><g><path class="j" d="M190.6,860.79l-30.56,5.19,12.65,12.11-1.42,1.49-14.53-13.91,1.34-1.4,30.42-5.22-13.53-12.95,1.69-1.23,15.24,14.59-1.28,1.34Z"/><path class="j" d="M146.02,833.7c5.74-5.36,13.81-7.21,19.81-.78,5.47,5.86,3.89,13.75-2.16,19.39-5.95,5.56-13.91,6.8-19.69,.61-5.34-5.72-4.1-13.5,2.03-19.22Zm15.96,16.97c4.84-4.52,6.94-11.44,2.27-16.44-5.03-5.39-11.59-3.5-16.58,1.16-4.9,4.58-6.81,11.15-2.12,16.18,5,5.36,11.68,3.53,16.43-.91Z"/><path class="j" d="M130.73,837.57l-1.41-1.69,20.51-17.15-9.82-11.75,1.84-1.01,10.97,13.12-22.09,18.47Z"/><path class="j" d="M116.11,819.75l-1.33-1.75,21.28-16.18-9.27-12.19,1.88-.92,10.35,13.62-22.92,17.43Z"/><path class="j" d="M115.16,786.79l10.27-2.59,1.26,1.85-29.7,7.51-1.46-2.16,17.69-25.2,1.35,1.99-6.16,8.66,6.75,9.94Zm-8.04-8.18c-5.29,7.43-7.78,11.09-9.06,12.65l.02,.03c2.19-.65,7.44-2,14.94-3.99l-5.9-8.69Z"/><path class="j" d="M103.87,765.73c2.83-2.71,3.46-6.04,1.04-10.05-2.7-4.46-5.98-4.81-8.66-3.19-2.78,1.68-3.77,3.94-1.86,10.12,1.81,5.95,1.47,9.2-2.08,11.35-3.24,1.96-7.68,1.45-10.84-3.78-3.24-5.37-1.3-9.63,1.5-11.75l1.18,1.95c-2.3,2.15-3.17,5.01-.86,8.84,2.13,3.52,4.94,4.44,7.69,2.78,2.71-1.64,2.8-3.88,1.21-9.06-2.42-7.91-.25-10.6,2.71-12.39,3.63-2.19,8.34-1.47,11.75,4.18,3.69,6.1,1.44,10.5-1.59,12.95l-1.18-1.95Z"/><path class="j" d="M72.95,754.92l-1.03-1.94,11.09-5.87-8-15.12-11.09,5.87-1.03-1.94,25.45-13.47,1.03,1.94-12.54,6.64,8,15.12,12.54-6.64,1.03,1.94-25.45,13.47Z"/><path class="j" d="M61.8,699.72c7.16-3.23,15.39-2.38,19.01,5.64,3.3,7.32-.74,14.27-8.27,17.67-7.42,3.35-15.36,1.96-18.84-5.76-3.21-7.13,.45-14.1,8.1-17.55Zm9.65,21.21c6.04-2.72,10.24-8.6,7.43-14.83-3.03-6.72-9.85-7.04-16.08-4.24-6.11,2.76-10.03,8.37-7.2,14.64,3.01,6.68,9.92,7.1,15.85,4.43Z"/><path class="j" d="M53.72,677.56l5.21,13.57,11.29-4.33-5.71-14.87,2.04-.43,6.38,16.62-26.88,10.32-6.26-16.31,1.92-.74,5.48,14.26,9.83-3.78-5.21-13.57,1.92-.74Z"/><path class="j" d="M57.19,668.07c3.37-2,4.74-5.1,3.29-9.55-1.62-4.96-4.74-6.04-7.71-5.06-3.09,1.01-4.56,2.99-4.1,9.44,.42,6.2-.65,9.29-4.6,10.58-3.6,1.17-7.81-.32-9.7-6.13-1.94-5.96,.91-9.68,4.12-11.11l.71,2.17c-2.73,1.58-4.22,4.16-2.83,8.42,1.28,3.91,3.81,5.44,6.86,4.44,3.01-.98,3.6-3.15,3.23-8.55-.57-8.25,2.15-10.38,5.44-11.46,4.03-1.32,8.46,.45,10.5,6.72,2.21,6.77-.97,10.55-4.48,12.26l-.71-2.17Z"/><path class="j" d="M53.49,636.25l-28.59-11.98,4.21,17-2,.49-4.83-19.53,1.88-.46,28.48,11.88-4.5-18.18,2.08-.14,5.07,20.47-1.8,.44Z"/><path class="j" d="M30.36,589.49c7.72-1.45,15.52,1.31,17.14,9.96,1.48,7.88-4.09,13.69-12.21,15.22-8.01,1.5-15.39-1.71-16.95-10.04-1.44-7.68,3.77-13.59,12.02-15.14Zm4.37,22.88c6.51-1.22,11.99-5.94,10.73-12.66-1.36-7.24-7.91-9.16-14.62-7.9-6.59,1.24-11.73,5.76-10.46,12.53,1.35,7.2,7.97,9.24,14.36,8.04Z"/><path class="j" d="M15.37,584.54l-.29-2.18,26.5-3.47-1.99-15.18,2.09,.14,2.23,16.96-28.54,3.74Z"/><path class="j" d="M12.57,561.7l-.19-2.19,26.64-2.25-1.29-15.26,2.08,.23,1.45,17.04-28.69,2.43Z"/><path class="j" d="M29.5,533.37l10.09,3.22,.09,2.24-29.19-9.3-.1-2.6,28.33-12.06,.1,2.4-9.8,4.1,.48,12.01Zm-2.51-11.19c-8.42,3.52-12.46,5.31-14.37,5.96v.04c2.21,.61,7.38,2.23,14.79,4.5l-.42-10.5Z"/><path class="j" d="M31.17,509.53c3.84-.78,6.16-3.25,6.25-7.94,.11-5.21-2.48-7.26-5.61-7.32-3.25-.07-5.29,1.32-6.99,7.55-1.65,5.99-3.67,8.56-7.83,8.47-3.78-.08-7.26-2.88-7.14-8.99,.13-6.27,4.05-8.84,7.55-9.13l-.05,2.28c-3.1,.59-5.36,2.54-5.45,7.02-.09,4.11,1.8,6.39,5.01,6.46,3.17,.07,4.44-1.78,5.86-7.01,2.18-7.98,5.45-9.09,8.91-9.02,4.24,.09,7.83,3.22,7.69,9.81-.15,7.12-4.4,9.64-8.27,10.09l.05-2.28Z"/><path class="j" d="M10.83,483.88l.17-2.19,12.51,.96,1.31-17.05-12.51-.96,.17-2.19,28.71,2.21-.17,2.19-14.15-1.09-1.31,17.05,14.15,1.09-.17,2.19-28.71-2.21Z"/><path class="j" d="M30.87,431.24c7.78,1.09,14.29,6.2,13.07,14.91-1.12,7.94-8.24,11.67-16.43,10.52-8.07-1.13-14.04-6.54-12.86-14.92,1.09-7.74,7.91-11.68,16.22-10.51Zm-3.16,23.08c6.56,.92,13.25-1.8,14.21-8.57,1.02-7.3-4.57-11.21-11.34-12.16-6.64-.93-12.95,1.72-13.91,8.53-1.02,7.26,4.6,11.3,11.04,12.2Z"/><path class="j" d="M35.87,408.2l-2.84,14.26,11.86,2.36,3.11-15.61,1.95,.72-3.48,17.45-28.23-5.62,3.42-17.13,2.02,.4-2.98,14.98,10.33,2.05,2.84-14.26,2.02,.4Z"/><path class="j" d="M43.86,402.04c3.92,.11,6.73-1.78,7.88-6.32,1.28-5.05-.79-7.63-3.82-8.4-3.15-.8-5.45,.09-8.5,5.79-2.95,5.47-5.5,7.51-9.53,6.49-3.67-.93-6.43-4.44-4.93-10.36,1.54-6.08,5.93-7.7,9.41-7.2l-.56,2.21c-3.15-.12-5.79,1.27-6.89,5.61-1.01,3.99,.32,6.63,3.43,7.42,3.07,.78,4.73-.74,7.29-5.51,3.92-7.28,7.36-7.63,10.71-6.79,4.11,1.04,6.91,4.9,5.29,11.29-1.74,6.91-6.45,8.41-10.33,7.97l.56-2.21Z"/><path class="j" d="M57.72,373.13l-17.79-25.38-5.52,16.62-1.95-.65,6.34-19.09,1.83,.61,17.75,25.24,5.9-17.78,1.84,1-6.65,20.02-1.76-.58Z"/><path class="j" d="M63.12,321.23c7.3,2.9,12.42,9.4,9.18,17.58-2.96,7.46-10.76,9.4-18.45,6.35-7.57-3.01-12.1-9.67-8.97-17.54,2.88-7.27,10.44-9.48,18.24-6.39Zm-8.51,21.69c6.16,2.44,13.3,1.38,15.83-4.98,2.72-6.85-1.8-11.98-8.15-14.49-6.23-2.47-12.99-1.39-15.53,5.01-2.7,6.82,1.81,12.07,7.85,14.46Z"/><path class="j" d="M53.08,309.08l.92-2,24.27,11.22,6.43-13.9,1.7,1.23-7.18,15.52-26.13-12.08Z"/><path class="j" d="M62.94,288.25l1.01-1.95,23.72,12.33,7.06-13.59,1.64,1.31-7.89,15.18-25.54-13.28Z"/><path class="j" d="M92.35,273.29l6.73,8.18-1.14,1.93-19.48-23.64,1.32-2.24,30.34,5.23-1.22,2.07-10.46-1.87-6.11,10.34Zm3.96-10.76c-8.98-1.61-13.35-2.3-15.31-2.79l-.02,.04c1.53,1.7,4.99,5.87,9.99,11.8l5.34-9.05Z"/><path class="j" d="M106.57,254.09c3.66,1.4,6.94,.55,9.53-3.35,2.88-4.34,1.79-7.46-.81-9.19-2.71-1.8-5.17-1.72-9.94,2.63-4.6,4.18-7.69,5.26-11.15,2.96-3.15-2.09-4.59-6.32-1.21-11.41,3.47-5.22,8.15-5.29,11.27-3.66l-1.26,1.9c-2.93-1.16-5.88-.73-8.36,3-2.27,3.43-1.9,6.36,.77,8.13,2.64,1.75,4.7,.87,8.71-2.77,6.12-5.57,9.48-4.75,12.35-2.84,3.53,2.34,4.89,6.91,1.24,12.41-3.94,5.94-8.88,5.79-12.39,4.09l1.26-1.9Z"/><path class="j" d="M103.12,221.55l1.32-1.76,10.04,7.52,10.25-13.69-10.04-7.52,1.32-1.76,23.05,17.25-1.32,1.76-11.36-8.5-10.25,13.69,11.36,8.5-1.32,1.76-23.05-17.25Z"/><path class="j" d="M148.24,187.86c5.98,5.09,8.74,12.89,3.05,19.59-5.2,6.11-13.21,5.44-19.51,.08-6.2-5.28-8.35-13.04-2.86-19.49,5.06-5.96,12.94-5.62,19.33-.19Zm-15.03,17.8c5.04,4.29,12.16,5.58,16.59,.37,4.78-5.61,2.14-11.92-3.06-16.34-5.11-4.34-11.86-5.49-16.31-.24-4.75,5.58-2.17,12,2.79,16.22Z"/><path class="j" d="M164.81,171.06l-10.03,10.53,8.75,8.34,10.99-11.53,1.26,1.65-12.28,12.89-20.84-19.87,12.05-12.65,1.49,1.42-10.54,11.06,7.62,7.27,10.03-10.53,1.49,1.42Z"/><path class="j" d="M174.87,170.12c3.25,2.19,6.64,2.09,10.04-1.13,3.78-3.59,3.42-6.87,1.26-9.14-2.24-2.36-4.66-2.84-10.28,.34-5.42,3.04-8.67,3.41-11.53,.39-2.6-2.74-3.06-7.19,1.37-11.39,4.55-4.32,9.13-3.33,11.8-1.05l-1.65,1.57c-2.6-1.79-5.57-2.03-8.82,1.06-2.98,2.83-3.28,5.77-1.07,8.1,2.18,2.3,4.39,1.9,9.1-.76,7.21-4.06,10.3-2.52,12.68,0,2.92,3.07,3.22,7.83-1.56,12.37-5.17,4.9-9.95,3.66-12.99,1.22l1.65-1.57Z"/><path class="j" d="M202.03,153.11l-1.49-30.96-13.54,11.11-1.3-1.59,15.55-12.76,1.23,1.49,1.53,30.82,14.48-11.88,1.02,1.82-16.31,13.38-1.17-1.43Z"/><path class="j" d="M234.29,112.1c4.63,6.35,5.5,14.58-1.61,19.76-6.48,4.73-14.12,2.21-19-4.47-4.8-6.58-5.08-14.63,1.76-19.62,6.32-4.61,13.89-2.45,18.84,4.33Zm-18.77,13.79c3.91,5.35,10.52,8.26,16.05,4.23,5.95-4.34,4.87-11.09,.84-16.6-3.95-5.42-10.25-8.1-15.81-4.05-5.92,4.32-4.91,11.17-1.08,16.42Z"/><path class="j" d="M232.26,96.46l1.84-1.2,14.55,22.43,12.85-8.34,.78,1.95-14.35,9.31-15.67-24.16Z"/><path class="j" d="M251.71,84.09l1.9-1.11,13.5,23.08,13.22-7.73,.69,1.98-14.76,8.63-14.54-24.86Z"/><path class="j" d="M284.57,87.12l1.33,10.51-1.99,1.02-3.87-30.39,2.32-1.19,22.88,20.61-2.14,1.1-7.85-7.16-10.68,5.5Zm9.09-6.99c-6.74-6.16-10.07-9.07-11.46-10.53l-.04,.02c.38,2.26,1.09,7.63,2.15,15.31l9.34-4.81Z"/><path class="j" d="M306.82,78.46c2.35,3.14,5.58,4.17,9.85,2.25,4.75-2.14,5.5-5.35,4.22-8.21-1.33-2.97-3.46-4.22-9.82-3.08-6.12,1.08-9.31,.35-11.01-3.44-1.55-3.45-.51-7.8,5.06-10.3,5.72-2.57,9.72-.13,11.49,2.91l-2.08,.93c-1.86-2.55-4.59-3.76-8.67-1.92-3.75,1.69-5,4.37-3.69,7.29,1.3,2.89,3.51,3.25,8.84,2.3,8.14-1.45,10.55,1.03,11.97,4.18,1.74,3.87,.45,8.46-5.57,11.16-6.5,2.92-10.6,.16-12.66-3.15l2.08-.93Z"/><path class="j" d="M321.29,49.09l2.05-.78,4.48,11.72,15.98-6.11-4.48-11.72,2.05-.78,10.28,26.89-2.05,.78-5.07-13.25-15.98,6.11,5.07,13.25-2.05,.79-10.28-26.89Z"/><path class="j" d="M377.45,44.72c2.34,7.5,.5,15.57-7.9,18.18-7.66,2.38-14.08-2.47-16.54-10.36-2.42-7.78-.09-15.48,8-18,7.47-2.32,13.94,2.17,16.44,10.18Zm-22.22,7c1.97,6.32,7.29,11.21,13.82,9.18,7.04-2.19,8.19-8.92,6.15-15.44-1.99-6.4-7.09-10.98-13.66-8.93-7,2.18-8.25,8.99-6.32,15.19Z"/><path class="j" d="M400.41,39.39l-14.11,3.52,2.93,11.73,15.45-3.86,.18,2.07-17.27,4.31-6.97-27.93,16.95-4.24,.5,2-14.82,3.7,2.55,10.22,14.11-3.52,.5,2Z"/><path class="j" d="M409.42,43.99c1.58,3.59,4.49,5.32,9.09,4.42,5.12-1,6.57-3.97,5.97-7.04-.63-3.19-2.41-4.89-8.87-5.22-6.21-.33-9.15-1.77-9.95-5.85-.73-3.71,1.27-7.71,7.26-8.89,6.16-1.21,9.5,2.08,10.53,5.44l-2.24,.44c-1.24-2.9-3.62-4.7-8.02-3.84-4.04,.79-5.86,3.12-5.24,6.27,.61,3.11,2.69,3.96,8.1,4.24,8.26,.43,10.05,3.39,10.71,6.79,.82,4.16-1.48,8.34-7.95,9.61-6.99,1.37-10.36-2.24-11.63-5.94l2.24-.44Z"/><path class="j" d="M441.49,44.17l15.34-26.94-17.38,2.12-.25-2.04,19.97-2.43,.23,1.92-15.23,26.84,18.59-2.26-.11,2.09-20.94,2.55-.22-1.84Z"/><path class="j" d="M490.69,26.84c.51,7.84-3.17,15.25-11.95,15.82-8.01,.52-13.11-5.7-13.64-13.95-.53-8.13,3.55-15.07,12-15.62,7.8-.51,13.04,5.37,13.59,13.74Zm-23.24,1.6c.43,6.61,4.46,12.61,11.28,12.16,7.36-.48,10.05-6.75,9.6-13.57-.44-6.69-4.31-12.33-11.18-11.88-7.32,.48-10.13,6.8-9.71,13.29Z"/><path class="j" d="M497.43,12.53l2.2-.02,.2,26.73,15.31-.12-.39,2.06-17.11,.13-.22-28.79Z"/><path class="j" d="M520.36,12.5l2.2,.08-.92,26.72,15.3,.53-.48,2.04-17.09-.59,.99-28.77Z"/><path class="j" d="M546.53,32.62l-4.49,9.6-2.23-.2,12.96-27.76,2.6,.23,8.34,29.64-2.39-.21-2.82-10.24-11.97-1.06Zm11.42-1.06c-2.41-8.8-3.67-13.04-4.07-15.02h-.04c-.88,2.11-3.15,7.03-6.35,14.1l10.47,.92Z"/><path class="j" d="M569.98,37.18c.31,3.91,2.49,6.5,7.13,7.16,5.16,.73,7.51-1.59,7.95-4.69,.46-3.22-.67-5.41-6.66-7.84-5.75-2.36-8.06-4.68-7.47-8.79,.53-3.75,3.73-6.86,9.78-6,6.21,.88,8.29,5.08,8.16,8.6l-2.26-.32c-.21-3.15-1.87-5.63-6.31-6.26-4.07-.58-6.56,1.02-7.01,4.2-.45,3.14,1.24,4.62,6.25,6.66,7.66,3.13,8.37,6.51,7.89,9.93-.6,4.19-4.14,7.39-10.67,6.46-7.06-1-9.05-5.52-9.03-9.43l2.26,.32Z"/><path class="j" d="M597.89,20.06l2.16,.43-2.47,12.3,16.77,3.36,2.47-12.3,2.16,.43-5.66,28.23-2.16-.43,2.79-13.92-16.77-3.36-2.79,13.92-2.16-.43,5.66-28.23Z"/><path class="j" d="M647.71,46.35c-2.03,7.59-7.89,13.43-16.39,11.16-7.75-2.07-10.58-9.6-8.45-17.59,2.1-7.87,8.19-13.14,16.37-10.95,7.55,2.02,10.63,9.27,8.46,17.38Zm-22.52-5.94c-1.71,6.4,.18,13.37,6.79,15.14,7.12,1.9,11.68-3.18,13.45-9.77,1.73-6.48-.13-13.07-6.78-14.84-7.08-1.89-11.77,3.2-13.45,9.47Z"/><path class="j" d="M669.97,54.1l-13.81-4.55-3.79,11.48,15.12,4.99-.96,1.85-16.9-5.57,9.02-27.34,16.59,5.47-.64,1.95-14.5-4.78-3.3,10,13.81,4.55-.64,1.95Z"/><path class="j" d="M675.14,62.79c-.58,3.88,.95,6.9,5.32,8.59,4.86,1.88,7.67,.15,8.8-2.77,1.17-3.03,.57-5.42-4.71-9.15-5.07-3.6-6.79-6.38-5.29-10.25,1.37-3.53,5.19-5.84,10.88-3.64,5.85,2.26,6.92,6.83,6,10.22l-2.13-.82c.51-3.11-.55-5.9-4.73-7.52-3.83-1.49-6.62-.49-7.78,2.5-1.14,2.95,.16,4.78,4.58,7.91,6.75,4.78,6.68,8.23,5.43,11.46-1.53,3.95-5.7,6.26-11.85,3.88-6.65-2.57-7.56-7.43-6.66-11.22l2.13,.82Z"/><path class="j" d="M702.14,80.07l27.36-14.57-15.83-7.5,.88-1.86,18.18,8.61-.83,1.75-27.22,14.55,16.93,8.02-1.21,1.7-19.06-9.03,.79-1.67Z"/><path class="j" d="M752.98,91.7c-3.76,6.9-10.83,11.19-18.55,6.98-7.04-3.84-8.03-11.82-4.07-19.08,3.9-7.15,11.05-10.84,18.49-6.78,6.86,3.74,8.15,11.51,4.13,18.88Zm-20.49-11.08c-3.17,5.81-2.98,13.04,3.03,16.31,6.47,3.53,12.1-.33,15.37-6.33,3.21-5.89,2.95-12.73-3.1-16.02-6.44-3.51-12.19,.33-15.3,6.04Z"/><path class="j" d="M766.29,83.21l1.87,1.16-14.07,22.74,13.02,8.06-1.43,1.53-14.54-9,15.15-24.49Z"/><path class="j" d="M785.75,95.49l1.81,1.24-15.1,22.07,12.64,8.65-1.5,1.47-14.12-9.66,16.26-23.77Z"/><path class="j" d="M797.06,126.51l-8.93,5.7-1.78-1.36,25.82-16.49,2.07,1.59-8.85,29.5-1.91-1.46,3.11-10.16-9.54-7.31Zm10.2,5.23c2.68-8.72,3.89-12.98,4.61-14.86l-.03-.02c-1.88,1.31-6.43,4.24-12.92,8.49l8.34,6.39Z"/><path class="j" d="M814.39,142.91c-1.83,3.46-1.38,6.83,2.18,9.87,3.96,3.38,7.19,2.68,9.22,.3,2.11-2.47,2.33-4.93-1.42-10.19-3.6-5.07-4.3-8.27-1.6-11.43,2.46-2.88,6.83-3.8,11.48,.17,4.77,4.07,4.27,8.73,2.28,11.63l-1.74-1.48c1.51-2.77,1.43-5.76-1.98-8.66-3.13-2.67-6.09-2.65-8.17-.21-2.06,2.41-1.43,4.56,1.71,8.98,4.79,6.74,3.58,9.98,1.34,12.61-2.75,3.22-7.45,4.02-12.47-.26-5.42-4.63-4.68-9.51-2.57-12.8l1.74,1.48Z"/><path class="j" d="M847.12,143.42l1.59,1.52-8.67,9.07,12.37,11.82,8.67-9.07,1.59,1.52-19.89,20.82-1.59-1.52,9.8-10.26-12.37-11.82-9.8,10.26-1.59-1.52,19.89-20.82Z"/><path class="j" d="M875.16,192.26c-5.77,5.33-13.84,7.13-19.81,.67-5.44-5.89-3.82-13.77,2.26-19.38,5.98-5.53,13.94-6.73,19.69-.5,5.3,5.74,4.03,13.52-2.13,19.21Zm-15.86-17.05c-4.86,4.49-7,11.4-2.36,16.42,5,5.41,11.57,3.56,16.59-1.07,4.92-4.55,6.87-11.11,2.2-16.17-4.97-5.38-11.66-3.59-16.43,.82Z"/><path class="j" d="M889.85,210.71l-9.25-11.22-9.33,7.69,10.13,12.29-1.8,1.06-11.32-13.74,22.22-18.31,11.11,13.48-1.59,1.31-9.71-11.79-8.13,6.7,9.25,11.22-1.59,1.31Z"/><path class="j" d="M889.56,220.8c-2.56,2.97-2.87,6.34-.08,10.1,3.11,4.19,6.41,4.22,8.92,2.35,2.61-1.94,3.38-4.28,.89-10.25-2.37-5.75-2.34-9.02,.99-11.49,3.04-2.26,7.5-2.17,11.15,2.73,3.74,5.03,2.21,9.46-.37,11.84l-1.36-1.83c2.09-2.36,2.68-5.29,0-8.88-2.45-3.3-5.34-3.95-7.92-2.04-2.54,1.89-2.42,4.13-.34,9.13,3.17,7.64,1.26,10.53-1.51,12.59-3.4,2.53-8.16,2.26-12.1-3.04-4.25-5.72-2.44-10.31,.35-13.05l1.36,1.83Z"/><path class="j" d="M903.21,249.83l30.92,2.25-9.4-14.78,1.74-1.1,10.79,16.98-1.63,1.04-30.79-2.19,10.05,15.81-1.93,.79-11.32-17.8,1.56-.99Z"/><path class="j" d="M940.02,286.78c-6.86,3.83-15.13,3.7-19.42-3.98-3.91-7-.49-14.28,6.73-18.31,7.11-3.97,15.13-3.28,19.26,4.12,3.81,6.82,.76,14.08-6.57,18.18Zm-11.44-20.29c-5.78,3.23-9.47,9.44-6.13,15.41,3.6,6.43,10.42,6.17,16.38,2.84,5.85-3.27,9.28-9.19,5.92-15.2-3.58-6.4-10.5-6.22-16.17-3.05Z"/><path class="j" d="M955.79,286.66l.96,1.98-24.03,11.74,6.72,13.76-2.03,.54-7.5-15.37,25.87-12.64Z"/><path class="j" d="M965.71,307.46l.87,2.02-24.54,10.61,6.07,14.06-2.05,.44-6.79-15.7,26.43-11.42Z"/><path class="j" d="M958.73,339.73l-10.59,.05-.78-2.1,30.63-.16,.9,2.45-23.23,20.21-.83-2.25,8.05-6.92-4.16-11.27Zm5.83,9.87c6.92-5.94,10.22-8.9,11.83-10.1v-.04c-2.3,.11-7.72,.15-15.47,.28l3.64,9.85Z"/><path class="j" d="M964.62,362.87c-3.4,1.95-4.82,5.03-3.43,9.5,1.54,4.98,4.65,6.11,7.63,5.19,3.1-.96,4.61-2.92,4.25-9.37-.33-6.21,.79-9.28,4.75-10.51,3.62-1.12,7.8,.44,9.61,6.28,1.85,5.99-1.06,9.66-4.29,11.05l-.67-2.18c2.75-1.53,4.29-4.1,2.96-8.38-1.21-3.93-3.72-5.5-6.79-4.55-3.02,.94-3.65,3.09-3.35,8.5,.45,8.26-2.31,10.35-5.61,11.37-4.05,1.25-8.45-.58-10.4-6.89-2.11-6.81,1.13-10.54,4.67-12.19l.67,2.18Z"/><path class="j" d="M992.02,380.81l.53,2.13-12.17,3.02,4.12,16.6,12.17-3.02,.53,2.13-27.94,6.94-.53-2.14,13.77-3.42-4.12-16.6-13.77,3.42-.53-2.13,27.94-6.94Z"/><path class="j" d="M989.54,437.07c-7.73,1.41-15.52-1.39-17.09-10.05-1.44-7.89,4.16-13.67,12.29-15.15,8.01-1.46,15.38,1.79,16.89,10.12,1.4,7.69-3.84,13.57-12.1,15.08Zm-4.25-22.9c-6.51,1.19-12.02,5.87-10.79,12.6,1.32,7.25,7.86,9.2,14.58,7.98,6.6-1.2,11.76-5.7,10.52-12.47-1.31-7.21-7.92-9.28-14.31-8.11Z"/><path class="j" d="M992.04,460.52l-1.79-14.43-12,1.49,1.96,15.8-2.08-.07-2.19-17.66,28.57-3.55,2.15,17.34-2.04,.25-1.88-15.16-10.45,1.3,1.79,14.43-2.04,.25Z"/><path class="j" d="M986.4,468.9c-3.75,1.13-5.82,3.82-5.48,8.49,.38,5.2,3.15,7,6.27,6.77,3.24-.24,5.15-1.81,6.25-8.18,1.08-6.12,2.85-8.87,7-9.17,3.77-.28,7.5,2.19,7.95,8.28,.46,6.26-3.2,9.18-6.66,9.8l-.17-2.27c3.03-.88,5.1-3.03,4.77-7.5-.3-4.1-2.39-6.19-5.59-5.96-3.16,.23-4.25,2.19-5.18,7.53-1.42,8.15-4.58,9.57-8.02,9.82-4.22,.31-8.1-2.47-8.58-9.05-.52-7.11,3.47-10.02,7.29-10.83l.17,2.27Z"/><path class="j" d="M982.36,500.7l24.92,18.44-.03-17.51h2.06l.04,20.11h-1.93l-24.83-18.31,.03,18.73-2.06-.36-.04-21.09h1.85Z"/><path class="j" d="M993.72,551.62c-7.84-.42-14.76-4.96-14.29-13.74,.43-8.01,7.22-12.34,15.47-11.89,8.13,.44,14.54,5.31,14.08,13.77-.42,7.81-6.89,12.31-15.26,11.86Zm1.18-23.27c-6.61-.36-13.05,2.92-13.42,9.76-.4,7.36,5.51,10.78,12.33,11.15,6.69,.36,12.76-2.82,13.13-9.69,.4-7.32-5.55-10.86-12.04-11.22Z"/><path class="j" d="M1007.12,559.93l-.24,2.19-26.58-2.91-1.67,15.22-2-.63,1.86-17,28.62,3.13Z"/><path class="j" d="M1004.4,582.85l-.34,2.17-26.41-4.14-2.37,15.13-1.97-.72,2.65-16.9,28.44,4.46Z"/><path class="j" d="M981.28,606.37l-8.98-5.61,.47-2.19,25.99,16.22-.54,2.55-30.44,4.69,.5-2.35,10.51-1.56,2.5-11.75Zm-.33,11.46c9.03-1.33,13.39-2.07,15.4-2.22v-.04c-1.98-1.13-6.59-3.98-13.22-8.01l-2.18,10.28Z"/><path class="j" d="M973.92,629.08c-3.92-.17-6.76,1.68-7.97,6.21-1.36,5.03,.67,7.64,3.69,8.46,3.14,.84,5.46,0,8.59-5.66,3.04-5.43,5.62-7.43,9.63-6.35,3.65,.98,6.36,4.54,4.77,10.44-1.63,6.06-6.05,7.61-9.52,7.05l.59-2.2c3.15,.17,5.81-1.18,6.98-5.5,1.07-3.97-.22-6.64-3.31-7.47-3.06-.82-4.74,.67-7.37,5.4-4.03,7.22-7.48,7.52-10.81,6.62-4.09-1.1-6.83-5-5.12-11.37,1.85-6.88,6.58-8.31,10.45-7.82l-.59,2.2Z"/><path class="j" d="M987.51,658.88l-.69,2.09-11.91-3.94-5.38,16.24,11.91,3.94-.69,2.09-27.33-9.05,.69-2.09,13.47,4.46,5.37-16.24-13.47-4.46,.69-2.09,27.33,9.05Z"/><path class="j" d="M955.38,705.14c-7.29-2.94-12.38-9.46-9.09-17.62,3-7.44,10.81-9.34,18.48-6.25,7.56,3.04,12.05,9.73,8.88,17.58-2.92,7.25-10.49,9.43-18.28,6.29Zm8.63-21.64c-6.14-2.47-13.3-1.45-15.85,4.9-2.75,6.84,1.74,11.98,8.07,14.54,6.22,2.51,12.99,1.46,15.56-4.93,2.74-6.8-1.75-12.07-7.77-14.5Z"/><path class="j" d="M944.97,726.31l6.19-13.15-10.94-5.15-6.78,14.41-1.72-1.17,7.58-16.1,26.05,12.26-7.44,15.81-1.86-.88,6.5-13.82-9.53-4.48-6.19,13.16-1.86-.88Z"/><path class="j" d="M935.72,730.36c-3.78-1.05-6.96,.11-9.17,4.24-2.46,4.6-1.08,7.6,1.68,9.07,2.87,1.53,5.31,1.23,9.65-3.57,4.18-4.6,7.15-5.97,10.82-4.01,3.34,1.78,5.17,5.86,2.29,11.25-2.96,5.53-7.61,6.04-10.87,4.72l1.08-2.01c3.03,.88,5.93,.17,8.04-3.78,1.94-3.63,1.29-6.51-1.54-8.03-2.79-1.49-4.76-.42-8.4,3.59-5.56,6.12-8.98,5.64-12.03,4.01-3.74-2-5.52-6.42-2.41-12.23,3.36-6.29,8.29-6.61,11.95-5.25l-1.07,2.01Z"/><path class="j" d="M915.29,755.09l11.17,28.92,9.35-14.81,1.74,1.1-10.75,17.01-1.63-1.03-11.16-28.77-10,15.84-1.54-1.41,11.27-17.84,1.56,.99Z"/><path class="j" d="M897.61,804.16c-6.4-4.56-9.81-12.1-4.7-19.27,4.66-6.53,12.7-6.54,19.43-1.74,6.63,4.73,9.43,12.28,4.5,19.18-4.54,6.37-12.41,6.7-19.24,1.83Zm13.47-19.01c-5.39-3.85-12.58-4.53-16.56,1.04-4.28,6-1.12,12.06,4.43,16.02,5.46,3.89,12.28,4.46,16.28-1.14,4.26-5.97,1.14-12.15-4.15-15.92Z"/><path class="j" d="M904.45,818.37l-1.38,1.72-20.88-16.7-9.57,11.96-1.35-1.6,10.69-13.36,22.48,17.99Z"/><path class="j" d="M889.91,836.23l-1.45,1.65-20.09-17.64-10.1,11.51-1.28-1.66,11.28-12.85,21.64,18.99Z"/><path class="j" d="M857.77,843.72l-4.58-9.55,1.57-1.6,13.27,27.61-1.82,1.86-28.22-12.33,1.68-1.72,9.71,4.31,8.4-8.59Zm-6.42,9.5c8.34,3.71,12.42,5.42,14.2,6.36l.03-.03c-1.08-2.02-3.44-6.89-6.88-13.85l-7.35,7.51Z"/><path class="j" d="M839.39,858.98c-3.22-2.24-6.61-2.19-10.05,.98-3.83,3.53-3.52,6.82-1.4,9.12,2.2,2.39,4.61,2.91,10.29-.19,5.46-2.96,8.72-3.28,11.53-.22,2.56,2.78,2.95,7.23-1.54,11.37-4.61,4.25-9.18,3.2-11.82,.87l1.68-1.54c2.57,1.83,5.54,2.11,8.84-.92,3.02-2.79,3.36-5.72,1.19-8.08-2.15-2.33-4.36-1.97-9.12,.62-7.27,3.95-10.34,2.36-12.68-.18-2.87-3.12-3.1-7.88,1.75-12.35,5.24-4.83,10-3.5,13.01-1.02l-1.68,1.54Z"/><path class="j" d="M834.97,891.41l-1.7,1.4-7.96-9.69-13.21,10.86,7.96,9.69-1.7,1.4-18.28-22.25,1.7-1.4,9.01,10.96,13.22-10.86-9.01-10.96,1.7-1.4,18.28,22.25Z"/><path class="j" d="M783.12,913.38c-4.6-6.37-5.42-14.61,1.72-19.75,6.51-4.7,14.13-2.13,18.97,4.57,4.77,6.6,5,14.65-1.87,19.61-6.34,4.58-13.91,2.38-18.82-4.43Zm18.84-13.7c-3.88-5.37-10.47-8.32-16.02-4.31-5.98,4.31-4.92,11.06-.93,16.6,3.92,5.44,10.21,8.16,15.79,4.13,5.94-4.29,4.97-11.14,1.16-16.41Z"/><path class="j" d="M763.05,925.73l12.25-7.83-6.51-10.19-13.42,8.57-.83-1.91,15-9.58,15.51,24.27-14.72,9.41-1.11-1.73,12.87-8.22-5.67-8.88-12.25,7.83-1.11-1.73Z"/><path class="j" d="M753.04,924.24c-2.64-2.9-5.95-3.62-10.02-1.3-4.53,2.58-4.96,5.85-3.41,8.57,1.61,2.82,3.84,3.87,10.07,2.12,5.99-1.66,9.23-1.23,11.29,2.38,1.87,3.29,1.25,7.71-4.05,10.73-5.45,3.1-9.66,1.05-11.71-1.8l1.98-1.13c2.09,2.36,4.93,3.3,8.82,1.08,3.57-2.03,4.56-4.82,2.98-7.61-1.57-2.75-3.81-2.9-9.02-1.44-7.97,2.22-10.6-.02-12.31-3.02-2.1-3.68-1.26-8.37,4.48-11.64,6.19-3.53,10.53-1.17,12.91,1.93l-1.98,1.13Z"/><path class="j" d="M722.61,934.26l-5.98,30.42,15.81-7.54,.89,1.86-18.16,8.66-.83-1.74,5.9-30.29-16.91,8.06-.55-2.01,19.04-9.08,.8,1.67Z"/><path class="j" d="M681.46,966.33c-2.97-7.27-1.83-15.47,6.31-18.79,7.43-3.03,14.24,1.25,17.37,8.9,3.08,7.54,1.42,15.42-6.42,18.62-7.24,2.96-14.08-.96-17.25-8.73Zm21.53-8.89c-2.51-6.13-8.23-10.55-14.56-7.96-6.82,2.79-7.39,9.59-4.8,15.91,2.54,6.21,8,10.33,14.37,7.72,6.79-2.77,7.45-9.66,4.99-15.68Z"/><path class="j" d="M679.65,982l-2.08,.72-8.73-25.27-14.47,5-.29-2.08,16.17-5.59,9.4,27.21Z"/><path class="j" d="M657.77,989.35l-2.11,.62-7.54-25.66-14.69,4.32-.19-2.09,16.41-4.82,8.12,27.63Z"/><path class="j" d="M626.61,978.48l1.24-10.52,2.18-.51-3.57,30.43-2.54,.6-17.23-25.52,2.34-.55,5.89,8.84,11.69-2.76Zm-10.5,4.59c5.06,7.6,7.58,11.23,8.58,12.98h.04c.17-2.29,.79-7.68,1.6-15.39l-10.22,2.41Z"/><path class="j" d="M602.93,981.52c-1.52-3.61-4.41-5.39-9.02-4.56-5.13,.93-6.63,3.87-6.07,6.95,.58,3.2,2.34,4.93,8.79,5.35,6.2,.43,9.12,1.91,9.85,5.99,.67,3.72-1.38,7.69-7.4,8.77-6.17,1.11-9.46-2.22-10.44-5.6l2.25-.41c1.19,2.92,3.55,4.75,7.96,3.96,4.05-.73,5.91-3.03,5.34-6.19-.56-3.12-2.62-4-8.03-4.36-8.25-.56-9.99-3.55-10.61-6.95-.75-4.17,1.6-8.31,8.1-9.48,7.01-1.27,10.32,2.4,11.53,6.11l-2.25,.41Z"/><path class="j" d="M581.8,1006.54l-2.18,.27-1.53-12.45-16.98,2.09,1.53,12.45-2.18,.27-3.5-28.58,2.18-.27,1.73,14.09,16.98-2.09-1.73-14.09,2.18-.27,3.5,28.58Z"/><path class="j" d="M526.26,997.29c-.47-7.84,3.25-15.24,12.03-15.76,8.01-.48,13.07,5.77,13.57,14.02,.49,8.13-3.63,15.05-12.08,15.56-7.8,.47-13.01-5.44-13.52-13.82Zm23.25-1.48c-.4-6.61-4.39-12.63-11.22-12.22-7.36,.44-10.08,6.7-9.67,13.52,.4,6.69,4.25,12.35,11.12,11.94,7.32-.44,10.16-6.75,9.77-13.24Z"/><path class="j" d="M502.7,996.99l14.54-.06-.05-12.09-15.92,.06,.32-2.06,17.79-.07,.12,28.79-17.47,.07v-2.06l15.26-.06-.05-10.53-14.54,.06v-2.06Z"/><path class="j" d="M495.05,990.38c-.68-3.86-3.1-6.24-7.77-6.45-5.21-.24-7.32,2.3-7.46,5.42-.15,3.25,1.18,5.32,7.38,7.17,5.95,1.8,8.46,3.89,8.27,8.04-.17,3.78-3.06,7.19-9.16,6.91-6.27-.29-8.73-4.27-8.94-7.78l2.28,.1c.51,3.11,2.4,5.42,6.88,5.63,4.11,.19,6.43-1.64,6.58-4.84,.14-3.16-1.67-4.48-6.86-6.04-7.92-2.38-8.95-5.68-8.79-9.13,.2-4.23,3.41-7.75,10-7.45,7.12,.33,9.53,4.64,9.88,8.52l-2.28-.1Z"/><path class="j" d="M463.96,982.6l-21.3,22.53,17.39,2.07-.24,2.04-19.98-2.37,.23-1.92,21.17-22.46-18.6-2.21,.61-2,20.95,2.49-.22,1.84Z"/><path class="j" d="M412.05,987.74c1.37-7.73,6.71-14.06,15.37-12.52,7.9,1.4,11.37,8.65,9.93,16.79-1.42,8.02-7.03,13.79-15.37,12.31-7.7-1.36-11.39-8.32-9.93-16.58Zm22.95,3.98c1.15-6.52-1.33-13.31-8.06-14.5-7.26-1.28-11.37,4.17-12.56,10.89-1.17,6.6,1.26,13,8.03,14.2,7.22,1.28,11.45-4.2,12.59-10.59Z"/><path class="j" d="M402.14,1000.04l-2.14-.5,6.11-26.03-14.91-3.5,.87-1.91,16.65,3.91-6.58,28.03Z"/><path class="j" d="M379.76,994.57l-2.12-.6,7.31-25.72-14.73-4.19,.95-1.87,16.45,4.68-7.87,27.7Z"/><path class="j" d="M359.2,968.75l6.66-8.23,2.12,.73-19.26,23.82-2.46-.85-.96-30.77,2.27,.78,.27,10.62,11.36,3.91Zm-11.33-1.72c.22,9.12,.42,13.54,.33,15.55h.04c1.36-1.82,4.75-6.05,9.56-12.14l-9.93-3.42Z"/><path class="j" d="M337.55,958.68c.64-3.87-.85-6.91-5.19-8.67-4.83-1.96-7.67-.26-8.84,2.63-1.22,3.01-.66,5.42,4.57,9.22,5.01,3.67,6.69,6.48,5.13,10.33-1.42,3.51-5.28,5.76-10.94,3.47-5.81-2.35-6.82-6.93-5.84-10.31l2.11,.86c-.55,3.1,.46,5.91,4.61,7.59,3.81,1.54,6.61,.59,7.82-2.38,1.19-2.94-.08-4.78-4.46-7.97-6.68-4.88-6.55-8.33-5.26-11.54,1.59-3.93,5.79-6.17,11.91-3.7,6.61,2.67,7.45,7.54,6.49,11.32l-2.11-.86Z"/><path class="j" d="M306.32,968.55l-1.99-.94,5.36-11.34-15.46-7.31-5.36,11.34-1.99-.94,12.31-26.03,1.99,.94-6.06,12.83,15.46,7.31,6.07-12.83,1.99,.94-12.3,26.03Z"/><path class="j" d="M264.3,931.05c3.8-6.88,10.89-11.14,18.59-6.89,7.02,3.88,7.96,11.87,3.97,19.1-3.94,7.13-11.12,10.78-18.53,6.69-6.84-3.78-8.08-11.56-4.03-18.9Zm20.43,11.18c3.2-5.8,3.05-13.02-2.94-16.33-6.45-3.56-12.1,.27-15.41,6.25-3.24,5.87-3.02,12.71,3.01,16.04,6.42,3.54,12.2-.27,15.34-5.96Z"/><path class="j" d="M244.57,918.17l12.31,7.74,6.43-10.24-13.48-8.47,1.37-1.57,15.07,9.47-15.32,24.37-14.79-9.3,1.09-1.74,12.93,8.13,5.6-8.91-12.31-7.74,1.09-1.74Z"/><path class="j" d="M241.64,908.49c1.5-3.62,.73-6.92-3.11-9.61-4.27-2.99-7.41-1.98-9.21,.58-1.87,2.66-1.86,5.13,2.38,10.01,4.06,4.71,5.06,7.82,2.68,11.22-2.17,3.1-6.44,4.43-11.44,.92-5.13-3.6-5.08-8.29-3.38-11.36l1.87,1.31c-1.24,2.9-.88,5.86,2.79,8.44,3.37,2.36,6.31,2.07,8.15-.56,1.82-2.59,.99-4.68-2.55-8.77-5.41-6.25-4.51-9.59-2.53-12.42,2.43-3.47,7.04-4.71,12.44-.92,5.83,4.09,5.56,9.02,3.77,12.49l-1.87-1.31Z"/></g><g id="b"><g><polygon class="m" points="412.79 534.85 224.56 534.85 231.94 513.54 420.17 513.54 412.79 534.85"/><g><path class="t" d="M266.51,464.38l4.18,15.18s31.44,5.34,49.54-.52c0,0-20.45-11.17-20.85-18.71l-32.87,4.06Z"/><path class="r" d="M270.69,479.56l.09,6.03s32.81,4.29,49.54-.72l-.08-5.84s-10.26,4.57-49.54,.52Z"/></g><path class="ae" d="M373.04,194.89l-86.96,25.55s-5.42,119.09-6.96,171.25c-1.54,52.16,0,72.06,0,72.06l25.55,.29s22.53-219.04,35.47-227.71"/><path class="ae" d="M340.14,236.33l40.39,74.37-30.08,88.54,37.33,2.72s29.81-75.48,26.1-104.89c-.63-4.99-40.85-102.19-40.85-102.19l-86.96,25.55"/></g><path class="x" d="M317.49,98.89s15.47-4.42,17.11-17.4l16.98-.13s-.2,7.73,7.51,14.95l5.15,10.73-15.18,7-31.58-15.15Z"/><path class="x" d="M387.4,152.34s-1.72,5.98-3.41,10.62c0,0,6.47,15.18,2.53,49.95,0,0-6.12-3.4-6.14-5.57l-9.72-52.85s3.08-6.12,16.74-2.15Z"/><path class="aj" d="M317.49,98.89s27.4,16.81,41.11,4.4c0,0,2.94-4.69,.49-6.98l20.26,1.01s7.57-.3,12.03,10.5c0,0,8.25,19.22,9.44,46.99,0,0-23.95-6.24-30.17-.31l9.72,52.85-24.24,5.92s-42.45,26.75-76.3,8.69l21.89-59.29s-3.69,.26-6.54-2.1c0,0-4.44-35.52,.11-52.45,.76-2.82,2.62-5.2,5.21-6.55,3.44-1.8,9.18-3.72,16.99-2.68Z"/><path class="ad" d="M353.53,214.77s14.82,6.21,14.14,6.72,.02,16.02,.02,16.02c0,0,.96,3.49,8.63,6.49,7.67,3,17.88,2.52,17.88,2.52l-22.02-37.19-18.66,5.43Z"/><path class="x" d="M329.27,141.94s43,59.19,51.1,65.4c0,0,3.08,3.87,6.14,5.57,3.06,1.7,12.05,9.63,9.53,17.47l-7.21-4.48s1.15,14.38,3.81,15.08c0,0-1.07,4.42-9.52-1.77-1.75-1.28-6.44-2.38-7.82-4.83,0,0-1.53-15.47-.45-16.56,0,0-45.69-39.27-48.38-51.25l-13.18-17.5,15.98-7.13Z"/><path class="m" d="M385.29,159.18s11.46-.65,15.54-4.39c0,0-11.2-2.05-13.43-2.45l-2.11,6.84Z"/><g><path class="ab" d="M383.99,162.96s-1.52-.36-4.74,2.93c0,0,3.11-2.08,4.88-2.58,.3-.08-.14-.35-.14-.35Z"/><path class="ab" d="M326.06,166.03s2.83-.43,2.8-2.6c0,0-1.5,2.98-3.13,2.17l.32,.43Z"/><path class="ab" d="M327.09,159.98s5.07,.91,5.19,4.55c0,0,.46-4.18-5.19-4.55Z"/></g><path class="m" d="M295.19,160.56s11.2,7.53,23.63-4.14l-5.53-7.35s-13.81,7.1-18.1,11.49Z"/><g class="ad"><path d="M370.65,154.49s7.75-42.14,11.36-50.02c0,0-8.48,35.47-10.17,49.15l-1.19,.87Z"/><path d="M374.7,137.38s8.84-14.08,12.58-28.01c0,0-7.36,24.22-12.92,29.69l.34-1.68Z"/><path d="M370.65,154.49s1.61,26.46-1.33,35.61c0,0,4.69-15.37,2.07-31.56l-.75-4.05Z"/><path d="M356.76,178.86s9.04-31.69,10.92-56.67c0,0-3.79,42.16-9.94,57.96l-.99-1.29Z"/><path d="M329.27,141.94s-10.17-24.48-17.27-33.8c0,0,6.63,10.22,16.32,34.23l.95-.42Z"/><path d="M323.97,132.01s-11.29-17-17.61-19.75c0,0,1.86-.02,18.15,20.99l-.54-1.24Z"/><path d="M314.67,99.83s29.23,25.87,46.89,4.41c0,0-19.02,23.31-46.89-4.41Z"/></g><path class="ad" d="M334.84,82.47l20.4,9.34,1.27,2.03s-10.35,1.9-17.84-2.06c-2.42-1.28-4.72-1.83-6.18-4.12,0,0-.11-4.89,2.35-5.19Z"/><path class="x" d="M331.69,75.85s-11.77,4.59-13.35,1.23,0-25.07,0-25.07l11.22-2.81,28.7-24.79,15.96,10.72s2.25,2.35-.95,26.87c0,0,3.2,12.8-2.13,19.19-5.33,6.4-8.53,9.6-8.53,9.6,0,0,0,3.87-16.62-1.3-1.66-.52-3.24-1.31-4.65-2.32l-6.51-4.69-3.15-6.61"/><rect class="m" x="350.46" y="60.93" width="2.11" height="6.25"/><rect class="m" x="368.3" y="57.5" width="2.11" height="6.25"/><path class="al" d="M356.91,53.77v3.2s-11.73-2.13-15.99,1.07c0,0,1.07-5.33,15.99-4.27Z"/><path class="al" d="M374.36,49.29s-3.19-1.23-7.86,1.97v3.06s3.58-3.27,7.86-3.7v-1.33Z"/><path class="m" d="M366.5,75.46l3.2-2.5-3.2-4.41s-.77-1.18-.64-1.56c0,0-.13,2.44,2.61,5.87l-1.97,2.6Z"/><path class="s" d="M368.1,80.83s-5.86,4.93-16.53,.66"/><polygon class="m" points="325.37 62.3 331.31 68.7 329.4 68.7 325.37 63.22 325.37 62.3"/><path class="al" d="M320.83,20.4c9.57-6.96,23.65-5.83,32.68-4.06,7.7,1.5,14.53,6.09,18.56,12.82,1.49,2.5,2.65,5.34,2.98,8.4,0,0-22.89-14.46-34.32,3.43,0,0-4.89,11.56-7.69,24.43,0,0-8.42-11.65-10.94-3.12,0,0,.68,15.99,10.28,14.93l2.17,4.63s-.49,11.1-17.06,17.03c0,0-11.57-1.59-18.79,3.88,0,0-7.59-60.75,22.12-82.37Z"/><path class="al" d="M361.56,32.46s-18.77,17.45-24.95,16.77c0,0,7.55-26.08,24.95-16.77Z"/><path d="M324.51,36.65s-11.72,15.51-9.08,58.31c0,0-.28-42.74,9.08-58.31Z"/><path d="M319.78,27.26s-19.92,18.69-17.67,70.43c0,0-1.22-45.72,17.67-70.43Z"/><path d="M346.32,27.26s-12.73,26.22-13.28,38.16c0,0,3.08-21.69,13.28-38.16Z"/><path d="M333.04,65.42s-2.14-9.91-4.09-13.74c0,0,4.64,6.6,4.09,13.74Z"/><path class="al" d="M361.56,32.46s7.6,9.63,13.29,13.88c0,0,2.35-8-1.13-13.88h-12.16Z"/><path class="ad" d="M283.85,211.07s22.74,3.67,43.24-5.99c0,0-12.95,9.84-44.61,9.7l1.37-3.7Z"/><g><path class="ad" d="M283.85,211.07s9.47-2.37,18.08-9.7c0,0-10.09,9.57-14.13,9.7h-3.95Z"/><path class="ad" d="M380.54,310.71s-.77,3.43,9.22-7.55c0,0-7.43,9.64-10.04,9.97l.82-2.42Z"/><path class="ad" d="M398.96,370.77s-6.66-.54-11.17-11.77c0,0,5.28,9.54,11.71,10.14l-.54,1.63Z"/><path class="ad" d="M340.78,237.51s6.12-6.42,8.18-16.02c0,0-4.8,13.73-9.61,13.73l1.43,2.3Z"/><path class="ad" d="M283.02,290.31s10.35-3.62,15.84-12.55c0,0-4.92,8.95-15.84,16.83v-4.28Z"/><path class="ad" d="M312.31,395.76s-7.23-7.66-6.9-11.35c0,0-.1,8.34,6.63,13.65l.27-2.29Z"/><path class="ad" d="M304.68,464.05s-9-4.4-23.87-3.72l.84-2.58s11.69,1.1,23.04,6.3Z"/><polygon class="ad" points="279.13 463.75 270.78 485.59 300.87 464.05 279.13 463.75"/></g><polygon class="ad" points="279.13 463.75 293.63 420.75 309.41 420.75 304.68 464.05 279.13 463.75"/><polygon class="ad" points="300.53 399.45 319 342.46 311.87 399.45 300.53 399.45"/><path class="ad" d="M380.49,391.1l27.44-50.45s-12.12,47.45-18.52,54.9l-8.91-4.45Z"/></g><g id="c"><g><path class="p" d="M734.6,525.23l-2.55,23.64,9.9,8.25s3.96,2.43,6.1,2.5,12.57-11.13,12.57-11.13l7.69-10.13,2.32-10.02-14.05-18.77-21.97,15.66Z"/><polygon class="am" points="734.6 525.23 737.38 538.89 754.95 521.78 756.57 509.57 734.6 525.23"/><path class="am" d="M714.25,500.12s-3.15,11.59-4.41,14.25l13.24,7.4-8.84-21.65Z"/><path class="p" d="M756.57,509.57s11.77,4.59,13.35,1.23c1.58-3.36,0-25.07,0-25.07l-11.22-2.81-28.7-24.79-15.96,10.72s-2.25,2.35,.95,26.87c0,0-3.2,12.8,2.13,19.19,5.33,6.4,8.53,9.6,8.53,9.6,0,0,0,3.87,16.62-1.3,1.66-.52,3.24-1.31,4.65-2.32l6.51-4.69,3.15-6.61"/><rect class="m" x="736.39" y="493.27" width="2.11" height="6.25"/><rect class="m" x="717.43" y="489.31" width="2.11" height="6.25"/><path class="ab" d="M732.05,486.11v3.2s11.73-2.13,15.99,1.07c0,0-1.07-5.33-15.99-4.27Z"/><path class="ab" d="M713.48,480.94s3.64-1.23,8.98,1.97v3.06s-4.09-3.27-8.98-3.7v-1.33Z"/><path class="m" d="M722.45,507.8l-3.2-2.5,3.2-4.41s.77-1.18,.64-1.56c0,0,.13,2.44-2.61,5.87l1.97,2.6Z"/><path class="s" d="M720.85,513.17s5.86,4.93,16.53,.66"/><polygon class="m" points="763.59 494.64 757.64 501.04 759.56 501.04 763.59 495.56 763.59 494.64"/><path class="ab" d="M714.04,468.84s16.48-14.25,27.91,3.65c0,0,11.17,12.41,13.96,25.28,0,0,8.42-11.65,10.94-3.12,0,0-.68,15.99-10.28,14.93l1.07,1.42s-2.86,8.36,2.97,11.78c5.16,3.02,.36,8.51,.36,8.51l27.59-14.25s-8.53-4.27-7.46-10.66c1.07-6.4,3.2-7.46,3.2-7.46,0,0,2.39-5.61-.94-12.94-1.9-4.18-1.67-8.07-1.13-10.63s.44-5.43-.5-7.99c-2.67-7.27-9.31-20.24-23.03-21.76-19.19-2.13-31.99,5.33-31.99,5.33,0,0-11.5,7.04-12.68,17.91Z"/><polygon class="ai" points="718.19 591.67 705.43 621.61 691.53 597 700.14 580.35 718.19 591.67"/><path class="ae" d="M841.87,606.6s17.06-1.07,41.58,104.49c24.52,105.56,31.99,136.48,31.99,136.48l-46.92,7.46-36.25-185.53-9.64-10.63,19.24-52.28Z"/><path class="ae" d="M841.87,606.6s-13.86,22.39-49.05,29.86l-33.65,170.64,41.35,16.56s21.09-157.34,31.75-154.14c10.66,3.2,9.6-62.91,9.6-62.91Z"/><path class="aj" d="M761.9,536.06v-5.17l26.66-13.86-2.33-1.46c6.2-.39,11.93,7.86,11.93,7.86l20.26,69.31c9.6,3.2,23.46,13.86,23.46,13.86-11.73,22.39-49.05,29.86-49.05,29.86l-36.25-31.41c-29.86-7.95-29.86-31.5-29.86-31.5l-8.53,18.13-18.04-11.32v-18.62s.98-4.18,10.58-19.11c9.6-14.93,23.88-17.39,23.88-17.39l2.78,13.66c-4.27,11.2,4.57,15.74,4.57,15.74,15.23,1.34,18.67-12.67,18.67-12.67,0,0,.15-.42,.36-.96,.61-1.57,.93-3.25,.93-4.94Z"/><path class="t" d="M884.1,852.57l3.03,17.05s23.97,6.48,37.87,.22c0,0-15.51-12.83-15.73-21.27l-25.17,4.01Z"/><path class="r" d="M887.13,869.62v6.75s25.04,5.33,37.87,0v-6.53s-7.89,4.95-37.87-.22Z"/></g><g><path class="af" d="M205.58,278.09s73.32-14.6,113.66-12.32l65.31,426.81-115.37,28.01-74.42-38,10.82-404.5Z"/><path class="y" d="M442.82,880.7v15.35l51.11,6.86s5.49-17.22,8.82,2.76l51.61,3.33s4-19.98,9.49,0h49.14s5.36-19.98,9.99,0l49.58-3.33s3.33-21.64,9.99,0l53.51-10.82s3.1-19.15,11.42-2.5l39.72-11.65s.23-18.31,8.56-3.33c0,0,36.63-6.66,43.28-18.31v-8.3l-396.22,29.95Z"/><path class="n" d="M108.97,790.15v103.1s7.56,12.42,40.85,9.09c0,0,0-19.98,6.66-4.99v5.56h50.58s-.63-18.88,7.69-5.56v5.56h50.64s3.43-22.74,7.19,0h53.54v-46.42s76.75,7.56,116.7,24.21c39.96,16.65,250.85,41.54,405.11-34.17l-11.82-56.38H108.97Z"/><path class="aq" d="M125.8,778.98s-41.71,14.18,6.14,19.66c47.85,5.48,152.73,3.81,214.33,8.81,0,0,66.59,8.32,132.35,27.47,65.76,19.15,268.47,8.19,347.74-36.28,0,0,25.81-11.5-5.73-19.66H125.8Z"/><path class="ar" d="M136.1,758.13s-16.25-.62-7.92,31.01c0,0-1.66,8.32,99.89,8.32s179.8,14.98,179.8,14.98c0,0,63.26,24.97,161.49,26.64,98.22,1.66,216.42-26.64,228.08-33.3,0,0,37.56-9.66,17.12-34.79l-678.44-12.86Z"/><path class="q" d="M114.02,265.55l36.63,286.35s9.99,64.33-18.31,130.39c0,0-9.99,56.07,6.66,81.04,0,0,256.38,8.32,302.99,34.96,46.61,26.64,154.83,24.97,154.83,24.97,0,0,208.1-14.98,216.42-46.61,0,0,17.48-65.76-75.75-70.75-93.23-4.99-159.29-19.65-192.02-68.93-32.73-49.27-69.69-90.3-99.49-206.3-29.8-116-39.79-195.91-39.79-195.91l-71.59,6.66s-18.31,4.99-14.98,31.63c3.33,26.64,38.29,391.23,38.29,391.23,0,0,9.99,38.29-44.95,26.64-54.94-11.65-79.91-3.33-81.58-61.6s-17.53-322.39-23.31-346.28c-5.09-21.03-4.09-30.03-58.27-23.31l-35.79,5.83Z"/><path class="o" d="M114.02,265.55s-2.5-84.07,7.49-85.74l6.66,8.32s-11.5,10.31-4.92,75.91l-9.23,1.5Z"/><path class="ak" d="M121.52,179.82s3.33,3.33,6.66,8.32c0,0,8.47,13.64-4.92,75.91l10.6-1.73s20.95-89.17-12.34-82.51Z"/><path class="ak" d="M396.23,235.68s14.96-59.2-23.33-80.84c0,0,34.96-14.98,33.3,79.91l-9.97,.93Z"/><path class="o" d="M372.9,154.84s-26.64,23.91,11.65,63.56c0,0,6.72,11.54,5.02,17.28h6.65l2.16-13s-30.66-47.71-17.25-61.94l-8.24-5.9Z"/></g><g id="d"><g id="e"><polygon class="i" points="657.94 587.94 677.67 327.24 705.43 327.24 699.53 589.01 657.94 587.94"/><polygon class="m" points="657.94 587.94 640.88 730.82 697.76 734.86 699.53 589.01 657.94 587.94"/><polygon class="ag" points="640.88 730.82 634.48 785.2 699.53 791.66 697.76 734.86 640.88 730.82"/></g><path class="m" d="M692,294.51h0c7.77,0,14.07,6.3,14.07,14.07v22.99h-28.14v-22.99c0-7.77,6.3-14.07,14.07-14.07Z" transform="translate(13.74 -28.75) rotate(2.4)"/><path class="j" d="M688.22,299.31s-5.52,.91-6.54,6.97c0,0-.33,3.32,.36,1.95,.49-.99,2.75-7.71,7.55-8.92,0,0,.69-.69-1.37,0Z"/><path class="ac" d="M697.11,295.4s3.26,4.57,2.33,36.49c-.93,31.93-10.37,256.04-10.37,256.04l10.45,1.07,6.32-270.33,.4-9.51s1.13-9.44-9.13-13.77Z"/><path class="l" d="M655.89,605.15s22.95,4.7,43.43,1.45l-.05,4.09s-29.02,3.18-43.71-2.77l.33-2.77Z"/><path class="l" d="M653.11,628.4s22.37,6.58,45.9,3.12l-.04,3.46s-19.89,3.09-45.86-3.29v-3.29Z"/><path class="l" d="M654.6,717.96s17.16-14.41,32.94,2.75c0,0-14.41-8.24-32.94-2.75Z"/><path class="k" d="M665.58,639.03l-6.86,52.85s5.79-17.84,10.1-52.85h-3.24Z"/><rect class="k" x="666.34" y="625.09" width="3.86" height="3.31"/><rect class="k" x="667.03" y="601.75" width="3.86" height="3.31"/><path class="ar" d="M638.58,750.37s-1.83,60.24,4.35,11.51l2.42-17.53,.99-6.4-4,45.02h4.99s1.13,.09,4.2-22.51c0,0-3.07,21.16,0,23.99,3.07,2.83,5.68-40.1,5.68-40.1,0,0-1.92,41.66,1.51,40.23,3.43-1.42,5.05-15.7,5.05-15.7,0,0-2.99,18.57,7.3,15.73,10.29-2.83,10.98-39.21,10.98-39.21,0,0-3.43,28.77,0,27.42,3.43-1.35,3.82-11.41,3.82-11.41,0,0-2.69,33.47,3.95,23.48,6.64-9.99,3.9-19.6,3.9-19.6,0,0,3.8,28.8,5.33,10.97l.48,15.38-65.04-6.46,4.1-34.83Z"/></g><path class="p" d="M774.53,576.01l-3.9,26.33s-49.92,14.16-60.77,14.54l-6.91-20.44-12.48-4.77-3.65,10.66s-3.82,2.13-2.75,5.33c1.07,3.2,2.13,11.73,2.13,11.73,0,0,2.13,2.13,2.13-5.33l2.13,2.13-1.07,1.07,3.2,4.27,3.2-1.07s2.13,6.4,17.06,7.46c14.93,1.07,72.04,0,72.04,0l15.65-49.3s-14.45-4.42-26.01-2.61Z"/><path class="p" d="M659.25,598.83l-11.52-5.78-1.55,20.59c-.14,1.85,1.42,3.38,3.27,3.2l10.81-1.04s1.65-.53,1.11-3.84c0,0,2.54-1.68,.77-3.82,0,0,2.75-2.75-.69-4.8,0,0,1.95-.49,.2-2.64-.65-.79-1.49-1.42-2.4-1.88Z"/><g><path class="ad" d="M758.7,445.59s-51.67,11.19-35.61,76.18l-13.24-7.4,4.33-13.48s.12-2.32,.81-5.18c0,0-2.59-20.68-.95-26.87,1.64-6.19,2.45-10.42,12.68-17.91,0,0,14.62-7.98,31.99-5.33Z"/><path class="ad" d="M743.94,452.09s16.35-.42,23.21,24.97c0,0-4.01-23.13-21.56-25.98l-1.65,1Z"/><path class="ad" d="M781.85,478.82s-3.72-14.8-13.32-19.6c0,0,8.12,3.05,13.32,16.97v2.63Z"/><path class="ad" d="M760.11,493.27s-4.51-11.65-14.52-18.73c0,0,10.85,10.01,13.12,19.99l1.4-1.26Z"/><path class="ad" d="M780.4,521.28s-11.44-6.86-6.17-21.76c0,0-7.21,12.07,5.21,22.26l.96-.5Z"/><path class="ad" d="M757.64,510.99s5.56,2.12,7.53,9.83c0,0,.04-6.2-8.6-11.25l1.07,1.42Z"/><path class="ad" d="M737.38,538.89l-6.53,20.19c-.96,2.97-1.66,6.02-2.08,9.11l-1.43,10.45-.69-5.49-8.47,18.53-18.04-11.32v-18.62s12.35-27.51,26.98-35.84l7.48-.66,2.78,13.66Z"/><path class="ad" d="M761.83,537.49s-6.48,10.08-10.53,10.52c0,0,7.58-2.22,9.32-6.04l1.21-4.48Z"/><path class="ad" d="M774.53,576.01s.56-25.75,7.57-41.41c0,0-6.88,18.19-6.79,41.41h-.77Z"/><path class="ad" d="M778.06,547.2s-4.05-8.37-1.99-13.86c0,0-2.87,5.39,1.65,15.39l.34-1.53Z"/><path class="ad" d="M804.9,580.7s2.61-29.51-3.84-47.36c0,0,7.58,18.53,4,47.36,0,0-2.99,1.11-5.35,.56l.83-2.63s3.67,1.39,4.36,2.08Z"/><path class="ad" d="M726.66,573.15s-2-19.41-5.81-25.15c0,0,4.8,24.12,2.9,31.49l2.9-6.35Z"/><path class="ad" d="M835.42,601.99s-14.52,6.32-25.61,19.63c0,0,20.3-18.95,30-16.55l-4.39-3.08Z"/><path class="ad" d="M787.75,632.06s27.44-6.07,33.62-12.93c0,0-8.92,10.19-31.57,14.7l-2.05-1.77Z"/><path class="ad" d="M756.57,605.05s5.94-2.99,8.6-10.93c0,0-2.72,9.6-7.58,11.81l-.76-.68"/><path class="ad" d="M832.28,669.51s2.81-8.67,6.93-13.06c0,0-7.83,7.6-9.75,15.33,0,0,1.37-2,2.82-2.28Z"/><path class="ad" d="M854.8,784.76s9.07-5.62,14.25-23.51c0,0-3.09,18.18-13.72,26.22l-.53-2.71Z"/><path class="ad" d="M910.42,826.44s-24.32-6.4-30.61-19.35c0,0,8.58,11.92,29.97,16.64l.64,2.71Z"/><path class="ad" d="M873.53,768.75s11.2-16.3,6.29-30.8c0,0,6.75,17.07-6.29,30.8Z"/><path class="ad" d="M737.38,538.89s3.69,5.43,7.12,6.8c0,0-4.8-2.06-7.55-5.49l.43-1.31Z"/><path class="an" d="M661.46,603.35l-14.04-6.11,.03-.44,13.32,5.87s.27,.22,1.16,.45l-.48,.23Z"/><path class="m" d="M662.65,607.49s-3.25-.71-11.49-4.14l-4.1-1.37v.47l15.08,5.71,.51-.66Z"/><path class="m" d="M661.94,611.48s-3.23-.69-15.23-4.76l-.02,.33,14.7,4.91,.56-.48Z"/><polygon class="m" points="660.26 615.8 648.06 611.97 648.06 612.41 659.4 615.89 660.26 615.8"/><polygon class="m" points="686.82 602.34 699.01 596.06 697.83 595.8 686.82 601.99 686.82 602.34"/><polygon class="m" points="692.6 621.53 700.58 619.13 700.58 618.66 692.35 621.2 692.6 621.53"/><polygon class="m" points="689.4 617.26 703.71 611.54 703.32 610.9 690.46 616.2 689.4 617.26"/><polygon class="m" points="689.02 613.38 687.79 610.21 701.26 602.17 701.26 603.09 688.22 610.21 689.47 613.39 689.76 614.12 689.02 613.38"/><polygon class="m" points="706.48 606.91 707.44 621.88 706.96 608.35 706.48 606.91"/><polygon class="m" points="687.79 610.21 688.33 614.06 690.46 616.2 689.76 614.12 687.79 610.21"/><path class="ad" d="M884.77,856.34s21.47-4.49,24.5-7.78l-25.17,4.01,.67,3.78Z"/><path class="ad" d="M782.1,691.88s9.62,1.44,20.76-4.72c0,0-14.06,8.78-22.46,12.31l1.7-7.59Z"/></g><path class="v" d="M114.68,270.68l35.56-5.15,29.16-1.47s19.22-.02,20.16,13.71c.94,13.73,10.94,137.73,10.94,137.73l11.02,188.63,1.48,21.87s-5.37,26.93,49,34,103.54,41.03,101-8-41.66-387.95-41.66-387.95c0,0-1.13-10.87,8.01-13.21,9.14-2.34,68.11-6.92,68.11-6.92"/></g><g id="f"><g><g><g id="g"><rect class="ao" x="60.72" y="619.11" width="462.52" height="70.95" transform="translate(322.97 -61.5) rotate(26.52)"/><polygon class="m" points="69.21 583.08 67.66 586.92 481.43 792.95 483.07 789.58 69.21 583.08"/></g><g><rect class="m" x="86.56" y="536.19" width="32.26" height="4.12" transform="translate(-424.78 389.82) rotate(-63.48)"/><rect class="m" x="105.38" y="537.94" width="21.96" height="2.75" transform="translate(-418.17 402.65) rotate(-63.48)"/><rect class="m" x="116.75" y="543.62" width="21.96" height="2.75" transform="translate(-416.95 415.96) rotate(-63.48)"/><rect class="m" x="128.12" y="549.29" width="21.96" height="2.75" transform="translate(-415.74 429.27) rotate(-63.48)"/><rect class="m" x="139.49" y="554.96" width="21.96" height="2.75" transform="translate(-414.52 442.59) rotate(-63.48)"/><rect class="m" x="143.41" y="564.56" width="32.26" height="4.12" transform="translate(-418.7 456.39) rotate(-63.48)"/><rect class="m" x="162.23" y="566.31" width="21.96" height="2.75" transform="translate(-412.08 469.21) rotate(-63.48)"/><rect class="m" x="173.6" y="571.98" width="21.96" height="2.75" transform="translate(-410.87 482.53) rotate(-63.48)"/><rect class="m" x="184.97" y="577.66" width="21.96" height="2.75" transform="translate(-409.65 495.84) rotate(-63.48)"/><rect class="m" x="196.34" y="583.33" width="21.96" height="2.75" transform="translate(-408.43 509.16) rotate(-63.48)"/><rect class="m" x="200.26" y="592.92" width="32.26" height="4.12" transform="translate(-412.61 522.96) rotate(-63.48)"/><rect class="m" x="219.08" y="594.67" width="21.96" height="2.75" transform="translate(-406 535.78) rotate(-63.48)"/><rect class="m" x="230.45" y="600.35" width="21.96" height="2.75" transform="translate(-404.78 549.1) rotate(-63.48)"/><rect class="m" x="241.82" y="606.02" width="21.96" height="2.75" transform="translate(-403.56 562.41) rotate(-63.48)"/><rect class="m" x="253.19" y="611.69" width="21.96" height="2.75" transform="translate(-402.35 575.73) rotate(-63.48)"/><rect class="m" x="257.11" y="621.29" width="32.26" height="4.12" transform="translate(-406.52 589.53) rotate(-63.48)"/><rect class="m" x="275.92" y="623.04" width="21.96" height="2.75" transform="translate(-399.91 602.35) rotate(-63.48)"/><rect class="m" x="287.29" y="628.71" width="21.96" height="2.75" transform="translate(-398.7 615.67) rotate(-63.48)"/><rect class="m" x="298.66" y="634.39" width="21.96" height="2.75" transform="translate(-397.48 628.98) rotate(-63.48)"/><rect class="m" x="310.03" y="640.06" width="21.96" height="2.75" transform="translate(-396.26 642.29) rotate(-63.48)"/><rect class="m" x="313.96" y="649.65" width="32.26" height="4.12" transform="translate(-400.44 656.1) rotate(-63.48)"/><rect class="m" x="332.77" y="651.41" width="21.96" height="2.75" transform="translate(-393.83 668.92) rotate(-63.48)"/><rect class="m" x="344.14" y="657.08" width="21.96" height="2.75" transform="translate(-392.61 682.24) rotate(-63.48)"/><rect class="m" x="355.51" y="662.75" width="21.96" height="2.75" transform="translate(-391.39 695.55) rotate(-63.48)"/><rect class="m" x="366.88" y="668.42" width="21.96" height="2.75" transform="translate(-390.17 708.86) rotate(-63.48)"/><rect class="m" x="370.81" y="678.02" width="32.26" height="4.12" transform="translate(-394.35 722.67) rotate(-63.48)"/><rect class="m" x="389.62" y="679.77" width="21.96" height="2.75" transform="translate(-387.74 735.49) rotate(-63.48)"/><rect class="m" x="400.99" y="685.44" width="21.96" height="2.75" transform="translate(-386.52 748.8) rotate(-63.48)"/><rect class="m" x="412.36" y="691.12" width="21.96" height="2.75" transform="translate(-385.31 762.12) rotate(-63.48)"/><rect class="m" x="423.73" y="696.79" width="21.96" height="2.75" transform="translate(-384.09 775.43) rotate(-63.48)"/><rect class="m" x="427.66" y="706.38" width="32.26" height="4.12" transform="translate(-388.26 789.24) rotate(-63.48)"/><rect class="m" x="484.5" y="734.75" width="32.26" height="4.12" transform="translate(-382.18 855.81) rotate(-63.48)"/><rect class="m" x="446.47" y="708.14" width="21.96" height="2.75" transform="translate(-381.65 802.06) rotate(-63.48)"/><rect class="m" x="457.84" y="713.81" width="21.96" height="2.75" transform="translate(-380.44 815.37) rotate(-63.48)"/><rect class="m" x="469.21" y="719.48" width="21.96" height="2.75" transform="translate(-379.22 828.69) rotate(-63.48)"/><rect class="m" x="480.58" y="725.16" width="21.96" height="2.75" transform="translate(-378 842) rotate(-63.48)"/></g></g><path class="ah" d="M258.81,678.79l3.38,6.75s0,13.24-1.69,13.37l55.73,22.65,28.64-42.78-27.51-29.27-24.77-5.63-20.26,16.89v11.26l-13.51,6.75Z"/><rect class="m" x="276.83" y="670.91" width="3.06" height="9.1"/><polygon class="m" points="262.16 687.7 278.36 693.99 279.89 706.8 275.13 704.86 274.58 695.68 262.09 689.96 262.16 687.7"/><path class="a`" d="M262.09,693.18s4.19,1.47,8.9,.86v1.37s-7.87,.86-8.9,0v-2.23Z"/><path class="m" d="M272.32,660.78s14.63-5.63,19.14,6.75c0,0-10.13-5.63-19.14-6.75Z"/><path class="m" d="M292.59,643.89l13.51,3.38-10.81,16.25s16.92,14.12-13.72,43.96l12.26,2.31s9.16-17.49,9.02-27.06c0,0,14.04-3.78,9.13,11.99-.43,1.39-1.2,2.66-2.26,3.67-2,1.93-5.14,6.14-1.67,11.4,4.8,7.27,9.48,9.83,9.48,9.83,0,0,12.21-12.69,20.09-17.19,6.31-3.6,9.73-20.19,10.84-26.67,.32-1.85,.15-3.75-.48-5.52-2.39-6.71-10.21-23.05-30.63-27.49,0,0-19.14-1.13-24.77,1.13Z"/><path class="ap" d="M182.95,695.79l-16.54-2.61s-2.3-16.94-7.29-33.68l-5-12.23s7.88-5.63,11.26-22.52c0,0-.44-7.07,3.16-9.73l1.34-2.66s-2.25-2.25-5.63,0c-3.38,2.25-5.63,7.88-5.63,11.26,0,0-4.5,3.42-4.5-2.79s-7.88-39.99-7.88-39.99c0,0-1.13-3.38-4.5-1.13,0,0-4.5-4.5-6.75,1.13,0,0-5.63-2.25-5.63,3.38v20.26s0,5.63-2.25,0-3.38-11.26-3.38-11.26c0,0-2.25-2.25-3.38,1.13-1.13,3.38,5.63,45.03,15.76,51.79l9.01,68.67,40.53,21.39-2.69-40.42Z"/><path class="w" d="M383.77,811.63l36.02,11.26s0-38.46-18.01-77.77l6.75-47.19s0-3.38-3.38-1.13l-2.75,10.68s-1.98,3.92-2.43,0c-.45-3.92-.45-21.94-.45-21.94,0,0-2.25-3.38-4.5-1.13,0,0-2.66-6.05-6.39-.77,0,0-3.74-3.73-5.99,.77s-3.38,29.27-3.38,29.27c0,0,0,7.88-4.5,2.25,0,0-1.13-9.01-6.75-10.13,0,0-3.38-1.13-1.13,3.38s5.63,21.39,5.63,21.39c0,0,4.5,9.01,12.38,15.76l4.5,32.65-5.63,32.65Z"/><path class="an" d="M363.51,870.17l-5.4,20.42s-20.14,43.16-32.7,47.96l40.8-6.83-6.08-16.51,3.38-45.03Z"/><path class="ae" d="M350.49,804.48s18.65,32.03,13.02,63.56l-5.56,22.81-9.07-38.73,1.61-47.64Z"/><path class="ae" d="M232.17,822.89l-58.76-31.52s-4.37-3.38-7.25,0-15.27,24.77-15.27,24.77c0,0-2.25,4.5,3.38,15.76,5.63,11.26,1.13,15.76,60.79,90.06v14.63s23.2,9.6,50.22-1.66c0,0,18.54,7.83,64.51,1.37,0,0,17.66-9.84,22.95-35.17l-120.58-78.24Z"/><path class="aj" d="M182.95,695.79s-4.07,42.67,6.06,60.68c0,0,32.78,4.47,44.54,21.94l-2.16,62.51s-1.13,46.41,39.6,67.67c40.73,21.25,73.88,0,73.88,0,0,0,27.65-16.21,4.01-54.33l3.02-45.69,27.56,14.33s15.58-31.52,9.95-43.9c-5.63-12.38-72.05-71.19-128.9-80.06-56.85-8.87-77.55-3.13-77.55-3.13Z"/><path class="t" d="M214.91,936.59l-.07,.05s-16.93,5.73-25.75,12.11c-.13,.09-.06,.29,.1,.29h75.7v-14.41l-49.98,1.95Z"/><polygon class="r" points="188.7 949.05 188.7 956.74 264.89 956.93 264.89 949.05 188.7 949.05"/><path class="t" d="M325.41,938.55v10.5h42.82s-10.37-10.04-11.49-15.75l-31.34,3.25v2Z"/><rect class="u" x="325.41" y="949.05" width="42.82" height="9.78"/></g><g id="h"><path class="ad" d="M305.48,719.62s22.41,61.82,47.44,89.34c0,0-35.69-43.06-47.44-89.34Z"/><path class="ad" d="M198,694.11s8.28,30.33,22.27,42.1c0,0-18.01-14.37-22.27-42.1Z"/><path class="ad" d="M233.06,792.7s19.16,72.52,43.77,100.8c0,0-27.91-31.54-43.77-100.8Z"/><path class="ad" d="M345.16,883.39s7.46-37.32,8.53-114.09c0,0-4.27,90.63-8.53,114.09Z"/><path class="ad" d="M348.04,858.54s7.72,14.91,4.55,35.34c0,0,1.53-17.53-4.55-35.34Z"/><path class="ad" d="M233.55,778.4s37.78,40.69,52.84,79.77c0,0-30.09-56.8-52.84-79.77Z"/><path class="ad" d="M267.32,934.57s-54.38-20.26-103.96-105.03c0,0,38.92,77.3,103.96,105.03Z"/><path class="ad" d="M169.28,839.33s-3.26-10.33-3.26-16.72c0,0,1.19,9.99,3.26,16.72Z"/><path class="an" d="M130.63,580.97s1.19-1.37,4.05-.25c.18,.07,.31,.25,.33,.44l2.22,23.92s.43,0,0,0c-.36,0-1.67-14.14-2.13-19.19-.05-.49-.38-3.05-.9-4.42-.18-.49-.92-.61-1.43-.75-.47-.13-.97-.13-1.44,.02l-.7,.22Z"/><path class="an" d="M137.63,578.05s1.04-.52,3.13,.71c.5,.29,.91,.75,1.05,1.31,.02,.07,.04,.12,.06,.14l2.22,23.92s.43,0,0,0c-.36,0-1.67-14.14-2.13-19.19-.05-.49-.38-3.05-.9-4.42-.18-.49-.31-.72-.69-1.1-.69-.69-2.28-1.52-2.75-1.37h0Z"/><path class="an" d="M128.03,615.11s8.24-8.92,21.28-2.06c0,0-12.35-5.49-21.28,2.06Z"/><path class="an" d="M391.24,681.53s-1.41-.05-2.6,2.11-.5,24.12-.5,24.12h.33s.36-22.65,1.04-24.02c0,0,.03-.98,1.73-2.21Z"/><path class="an" d="M396.74,683.65s-2.43,.09-2.43,2.15-.97,21.96-.97,21.96h.43l1.27-21.99s0-1.53,1.7-2.12Z"/><path class="an" d="M381.96,715.31s8.92-5.49,19.9,2.06c0,0-10.29-6.18-19.9-2.06Z"/><path class="m" d="M301.25,687.7s2.74-1.13,5.01-2.54l.8,1.27-7.53,4.29,1.73-3.01Z"/><path class="as" d="M389.4,778.98s2.16,9.76,11.09,15.25c0,0-7.78-4.72-11.44-17.8l.35,2.55Z"/></g><path class="ad" d="M325.41,936.54l42.82,22.29v-9.78s-7.87-5.71-11.49-15.75l-31.34,3.25Z"/><polygon class="ad" points="214.91 936.59 264.89 956.93 264.89 934.64 214.91 936.59"/></g></svg>